<?xml version="1.0" encoding="UTF-8" standalone="no"?>
<svg
   xmlns:cdml="http://www.freesoftware.fsf.org/bkchem/cdml"
   xmlns:dc="http://purl.org/dc/elements/1.1/"
   xmlns:cc="http://creativecommons.org/ns#"
   xmlns:rdf="http://www.w3.org/1999/02/22-rdf-syntax-ns#"
   xmlns:svg="http://www.w3.org/2000/svg"
   xmlns="http://www.w3.org/2000/svg"
   xmlns:sodipodi="http://sodipodi.sourceforge.net/DTD/sodipodi-0.dtd"
   xmlns:inkscape="http://www.inkscape.org/namespaces/inkscape"
   height="45.50833mm"
   version="1.0"
   viewBox="0 0 231 172"
   width="61.11875mm"
   id="svg2383"
   sodipodi:version="0.32"
   inkscape:version="0.46"
   sodipodi:docname="Fludeoxyglucose skeletal.svg"
   inkscape:output_extension="org.inkscape.output.svg.inkscape">
  <metadata
     id="metadata2450">
    <rdf:RDF>
      <cc:Work
         rdf:about="">
        <dc:format>image/svg+xml</dc:format>
        <dc:type
           rdf:resource="http://purl.org/dc/dcmitype/StillImage" />
      </cc:Work>
    </rdf:RDF>
  </metadata>
  <defs
     id="defs2448">
    <inkscape:perspective
       sodipodi:type="inkscape:persp3d"
       inkscape:vp_x="0 : 80.625 : 1"
       inkscape:vp_y="0 : 1000 : 0"
       inkscape:vp_z="216.5625 : 80.625 : 1"
       inkscape:persp3d-origin="108.28125 : 53.75 : 1"
       id="perspective2452" />
  </defs>
  <sodipodi:namedview
     inkscape:window-height="667"
     inkscape:window-width="640"
     inkscape:pageshadow="2"
     inkscape:pageopacity="0.0"
     guidetolerance="10.0"
     gridtolerance="10.0"
     objecttolerance="10.0"
     borderopacity="1.0"
     bordercolor="#666666"
     pagecolor="#ffffff"
     id="base"
     showgrid="false"
     inkscape:zoom="2.5119769"
     inkscape:cx="108.28125"
     inkscape:cy="80.625"
     inkscape:window-x="198"
     inkscape:window-y="38"
     inkscape:current-layer="svg2383" />
  <g
     style="font-size:15px;stroke:#000000;stroke-width:1;stroke-linecap:round;font-family:Helvetica"
     id="g2387"
     transform="translate(-147.2739,-211.15074)">
    <line
       id="line2389"
       y2="322.19"
       y1="302.26001"
       x2="310"
       x1="295.94" />
  </g>
  <g
     style="font-size:15px;stroke:#000000;stroke-width:1;stroke-linecap:round;font-family:Helvetica"
     id="g2391"
     transform="translate(-146,-212)">
    <line
       id="line2393"
       y2="294.26999"
       y1="277.07001"
       x2="260.39999"
       x1="299" />
  </g>
  <g
     style="font-size:15px;stroke:#000000;stroke-width:1;stroke-linecap:round;font-family:Helvetica"
     id="g2395"
     transform="translate(-147.2739,-210.7261)">
    <line
       id="line2397"
       y2="311.82001"
       y1="324.62"
       x2="221"
       x1="248" />
  </g>
  <g
     style="font-size:15px;stroke:#000000;stroke-width:1;stroke-linecap:round;font-family:Helvetica"
     id="g2399"
     transform="translate(-146,-212)">
    <polygon
       style="fill:#000000;stroke:#000000"
       id="polygon2401"
       points="212.09,273.37 250.03,323.17 245.96,326.07 211.28,273.95 212.09,273.37 " />
  </g>
  <g
     style="font-size:15px;stroke:#000000;stroke-width:1;stroke-linecap:round;font-family:Helvetica"
     id="g2403"
     transform="translate(-146,-212)">
    <line
       id="line2405"
       y2="282"
       y1="322.87"
       x2="314.95001"
       x1="344.64999" />
  </g>
  <g
     style="font-size:15px;stroke:#000000;stroke-width:1;stroke-linecap:round;font-family:Helvetica"
     id="g2407"
     transform="translate(-146,-212)">
    <polygon
       style="fill:#000000;stroke:#000000"
       id="polygon2409"
       points="344.46,323.33 294.96,304.56 296.91,299.96 344.85,322.41 344.46,323.33 " />
  </g>
  <g
     style="font-size:15px;stroke:#000000;stroke-width:1;stroke-linecap:round;font-family:Helvetica"
     id="g2411"
     transform="translate(-146,-212)">
    <line
       id="line2413"
       y2="267.45001"
       y1="294.26999"
       x2="234.94"
       x1="260.39999" />
  </g>
  <g
     style="font-size:15px;stroke:#000000;stroke-width:5;stroke-linecap:round;font-family:Helvetica"
     id="g2415"
     transform="translate(-146,-212)">
    <line
       id="line2417"
       y2="324.62"
       y1="302.26001"
       x2="248"
       x1="295.94" />
  </g>
  <g
     style="font-size:15px;stroke:#000000;stroke-width:1;stroke-linecap:round;font-family:Helvetica"
     id="g2419"
     transform="translate(-146,-212)">
    <line
       id="line2421"
       y2="286.98999"
       y1="273.66"
       x2="188"
       x1="211.69" />
  </g>
  <g
     style="font-size:15px;stroke:#000000;stroke-width:1;stroke-linecap:round;font-family:Helvetica"
     id="g2423"
     transform="translate(-146,-212)">
    <line
       id="line2425"
       y2="243"
       y1="267.45001"
       x2="234.94"
       x1="234.94" />
  </g>
  <g
     style="font-size:15px;stroke:#000000;stroke-width:1;stroke-linecap:round;font-family:Helvetica"
     id="g2427"
     transform="translate(-146,-212)">
    <line
       id="line2429"
       y2="273.66"
       y1="294.26999"
       x2="211.69"
       x1="260.39999" />
  </g>
  <g
     style="font-size:15px;stroke:#000000;stroke-width:1;stroke-linecap:round;font-family:Helvetica"
     id="g2431"
     transform="translate(-146,-212)">
    <line
       id="line2433"
       y2="350"
       y1="322.87"
       x2="344.64999"
       x1="344.64999" />
  </g>
  <path
     style="font-size:17.5px;fill:#000000;stroke-linecap:round;font-family:helvetica"
     d="M 83.693744,19.853557 C 83.693743,17.7743 84.252011,16.146494 85.368549,14.970134 C 86.485082,13.793795 87.926324,13.20562 89.692279,13.205607 C 90.848684,13.20562 91.891164,13.481906 92.819721,14.034465 C 93.748258,14.587048 94.456062,15.357514 94.943134,16.345866 C 95.430182,17.334237 95.673712,18.455045 95.673725,19.708293 C 95.673712,20.978643 95.417365,22.115116 94.904682,23.117717 C 94.391975,24.120323 93.665657,24.879396 92.725727,25.394938 C 91.785776,25.910482 90.77178,26.168254 89.683735,26.168254 C 88.50453,26.168254 87.450657,25.883423 86.522113,25.313762 C 85.593563,24.744101 84.890031,23.966514 84.411518,22.980998 C 83.933001,21.995488 83.693743,20.953008 83.693744,19.853557 L 83.693744,19.853557 z M 85.402729,19.879191 C 85.402726,21.388799 85.80861,22.577966 86.62038,23.446696 C 87.432143,24.315432 88.450412,24.749798 89.67519,24.749797 C 90.92274,24.749798 91.949554,24.311159 92.755634,23.433879 C 93.561694,22.556604 93.964729,21.311895 93.96474,19.699748 C 93.964729,18.680061 93.792407,17.789966 93.447773,17.02946 C 93.103117,16.268972 92.598967,15.679372 91.935321,15.260661 C 91.271657,14.841971 90.526826,14.632621 89.700824,14.632609 C 88.527316,14.632621 87.517592,15.035656 86.67165,15.841716 C 85.825699,16.647796 85.402726,17.99362 85.402729,19.879191 L 85.402729,19.879191 z M 97.85268,25.954631 L 97.85268,13.427775 L 99.510395,13.427775 L 99.510395,18.571818 L 106.02162,18.571818 L 106.02162,13.427775 L 107.67934,13.427775 L 107.67934,25.954631 L 106.02162,25.954631 L 106.02162,20.05009 L 99.510395,20.05009 L 99.510395,25.954631 L 97.85268,25.954631 z"
     id="text2435" />
  <path
     style="font-size:17.5px;fill:#000000;stroke-linecap:round;font-family:helvetica"
     d="M 192.84447,147.68893 C 192.84446,145.60968 193.40273,143.98187 194.51927,142.80551 C 195.6358,141.62917 197.07704,141.041 198.843,141.04099 C 199.9994,141.041 201.04188,141.31728 201.97044,141.86984 C 202.89898,142.42243 203.60678,143.19289 204.09385,144.18124 C 204.5809,145.16962 204.82443,146.29042 204.82445,147.54367 C 204.82443,148.81402 204.56809,149.95049 204.0554,150.95309 C 203.5427,151.9557 202.81638,152.71477 201.87645,153.23032 C 200.9365,153.74586 199.9225,154.00363 198.83446,154.00363 C 197.65525,154.00363 196.60138,153.7188 195.67283,153.14914 C 194.74428,152.57948 194.04075,151.80189 193.56224,150.81638 C 193.08372,149.83087 192.84446,148.78839 192.84447,147.68893 L 192.84447,147.68893 z M 194.55345,147.71457 C 194.55345,149.22418 194.95933,150.41334 195.7711,151.28207 C 196.58286,152.15081 197.60113,152.58518 198.82591,152.58517 C 200.07346,152.58518 201.10027,152.14654 201.90635,151.26926 C 202.71241,150.39198 203.11545,149.14727 203.11546,147.53513 C 203.11545,146.51544 202.94313,145.62534 202.59849,144.86484 C 202.25384,144.10435 201.74969,143.51475 201.08604,143.09604 C 200.42238,142.67735 199.67755,142.468 198.85155,142.46799 C 197.67804,142.468 196.66831,142.87103 195.82237,143.67709 C 194.97642,144.48317 194.55345,145.829 194.55345,147.71457 L 194.55345,147.71457 z M 207.0034,153.79001 L 207.0034,141.26315 L 208.66112,141.26315 L 208.66112,146.4072 L 215.17235,146.4072 L 215.17235,141.26315 L 216.83006,141.26315 L 216.83006,153.79001 L 215.17235,153.79001 L 215.17235,147.88547 L 208.66112,147.88547 L 208.66112,153.79001 L 207.0034,153.79001 z"
     id="text2437" />
  <path
     style="font-size:17.5px;fill:#000000;stroke-linecap:round;font-family:helvetica"
     d="M 165.46163,126.07999 L 165.46163,113.55313 L 173.91256,113.55313 L 173.91256,115.0314 L 167.11935,115.0314 L 167.11935,118.9108 L 172.99826,118.9108 L 172.99826,120.38907 L 167.11935,120.38907 L 167.11935,126.07999 L 165.46163,126.07999 z"
     id="text2439" />
  <path
     style="font-size:17.5px;fill:#000000;stroke-linecap:round;font-family:helvetica"
     d="M 12.70137,82.421466 L 12.70137,69.894611 L 14.359085,69.894611 L 14.359085,75.038654 L 20.870316,75.038654 L 20.870316,69.894611 L 22.52803,69.894611 L 22.52803,82.421466 L 20.870316,82.421466 L 20.870316,76.516925 L 14.359085,76.516925 L 14.359085,82.421466 L 12.70137,82.421466 z M 24.792435,76.320392 C 24.792434,74.241136 25.350702,72.61333 26.467239,71.436969 C 27.583772,70.26063 29.025014,69.672455 30.79097,69.672443 C 31.947375,69.672455 32.989854,69.948741 33.918411,70.5013 C 34.846949,71.053883 35.554752,71.824349 36.041824,72.812701 C 36.528872,73.801073 36.772402,74.921881 36.772415,76.175128 C 36.772402,77.445478 36.516055,78.581952 36.003372,79.584552 C 35.490665,80.587158 34.764348,81.346231 33.824417,81.861774 C 32.884467,82.377317 31.87047,82.635089 30.782425,82.635089 C 29.60322,82.635089 28.549347,82.350259 27.620804,81.780597 C 26.692253,81.210937 25.988722,80.43335 25.510208,79.447833 C 25.031691,78.462323 24.792434,77.419844 24.792435,76.320392 L 24.792435,76.320392 z M 26.501419,76.346027 C 26.501417,77.855634 26.9073,79.044801 27.71907,79.913532 C 28.530833,80.782267 29.549102,81.216633 30.77388,81.216632 C 32.021431,81.216633 33.048244,80.777994 33.854324,79.900714 C 34.660385,79.023439 35.06342,77.77873 35.063431,76.166583 C 35.06342,75.146897 34.891097,74.256801 34.546463,73.496295 C 34.201808,72.735807 33.697658,72.146208 33.034012,71.727496 C 32.370348,71.308806 31.625516,71.099456 30.799515,71.099445 C 29.626006,71.099456 28.616283,71.502491 27.77034,72.308551 C 26.92439,73.114631 26.501417,74.460455 26.501419,76.346027 L 26.501419,76.346027 z"
     id="text2441" />
  <path
     style="font-size:17.5px;fill:#000000;stroke-linecap:round;font-family:helvetica"
     d="M 45.70137,103.83096 L 45.70137,91.304104 L 47.359085,91.304104 L 47.359085,96.448147 L 53.870316,96.448147 L 53.870316,91.304104 L 55.52803,91.304104 L 55.52803,103.83096 L 53.870316,103.83096 L 53.870316,97.926419 L 47.359085,97.926419 L 47.359085,103.83096 L 45.70137,103.83096 z M 57.792435,97.729885 C 57.792434,95.650629 58.350702,94.022823 59.467239,92.846463 C 60.583772,91.670124 62.025014,91.081949 63.79097,91.081936 C 64.947375,91.081949 65.989854,91.358235 66.918411,91.910794 C 67.846949,92.463377 68.554752,93.233843 69.041824,94.222195 C 69.528872,95.210566 69.772402,96.331374 69.772415,97.584622 C 69.772402,98.854972 69.516055,99.991445 69.003372,100.99405 C 68.490665,101.99665 67.764348,102.75572 66.824417,103.27127 C 65.884467,103.78681 64.87047,104.04458 63.782425,104.04458 C 62.60322,104.04458 61.549347,103.75975 60.620804,103.19009 C 59.692253,102.62043 58.988722,101.84284 58.510208,100.85733 C 58.031691,99.871816 57.792434,98.829337 57.792435,97.729885 L 57.792435,97.729885 z M 59.501419,97.75552 C 59.501417,99.265128 59.9073,100.45429 60.71907,101.32302 C 61.530833,102.19176 62.549102,102.62613 63.77388,102.62613 C 65.021431,102.62613 66.048244,102.18749 66.854324,101.31021 C 67.660385,100.43293 68.06342,99.188223 68.063431,97.576077 C 68.06342,96.55639 67.891097,95.666295 67.546463,94.905789 C 67.201808,94.1453 66.697658,93.555701 66.034012,93.13699 C 65.370348,92.7183 64.625516,92.508949 63.799515,92.508938 C 62.626006,92.508949 61.616283,92.911985 60.77034,93.718045 C 59.92439,94.524125 59.501417,95.869949 59.501419,97.75552 L 59.501419,97.75552 z"
     id="text2443" />
  <path
     style="font-size:17.5px;fill:#000000;stroke-linecap:round;font-family:helvetica"
     d="M 156.41984,60.082826 C 156.41983,58.00357 156.9781,56.375764 158.09464,55.199404 C 159.21117,54.023065 160.65241,53.43489 162.41837,53.434877 C 163.57477,53.43489 164.61725,53.711176 165.54581,54.263735 C 166.47435,54.816318 167.18215,55.586784 167.66922,56.575136 C 168.15627,57.563507 168.3998,58.684315 168.39982,59.937563 C 168.3998,61.207913 168.14346,62.344386 167.63077,63.346987 C 167.11807,64.349593 166.39175,65.108666 165.45182,65.624208 C 164.51187,66.139752 163.49787,66.397523 162.40983,66.397524 C 161.23062,66.397523 160.17675,66.112693 159.2482,65.543032 C 158.31965,64.973371 157.61612,64.195784 157.13761,63.210268 C 156.65909,62.224757 156.41983,61.182278 156.41984,60.082826 L 156.41984,60.082826 z M 158.12882,60.108461 C 158.12882,61.618069 158.5347,62.807236 159.34647,63.675966 C 160.15823,64.544701 161.1765,64.979068 162.40128,64.979067 C 163.64883,64.979068 164.67564,64.540429 165.48172,63.663149 C 166.28778,62.785873 166.69082,61.541164 166.69083,59.929018 C 166.69082,58.909331 166.5185,58.019236 166.17386,57.25873 C 165.82921,56.498241 165.32506,55.908642 164.66141,55.489931 C 163.99775,55.071241 163.25292,54.86189 162.42692,54.861879 C 161.25341,54.86189 160.24368,55.264926 159.39774,56.070986 C 158.55179,56.877066 158.12882,58.22289 158.12882,60.108461 L 158.12882,60.108461 z"
     id="text2445" />
  <cdml:cdml
     version="0.15">
    <cdml:info>
      <cdml:author_program
         version="0.13.0">BKchem</cdml:author_program>
    </cdml:info>
    <cdml:paper
       crop_margin="10"
       crop_svg="1"
       orientation="portrait"
       replace_minus="0"
       type="A4"
       use_real_minus="0" />
    <cdml:viewport
       viewport="0.000000 0.000000 640.000000 480.000000" />
    <cdml:standard
       area_color=""
       font_family="helvetica"
       font_size="12"
       line_color="#000"
       line_width="1px"
       paper_crop_margin="10"
       paper_crop_svg="0"
       paper_orientation="portrait"
       paper_type="A4">
      <cdml:bond
         double-ratio="0.75"
         length="0.7cm"
         wedge-width="5px"
         width="6px" />
      <cdml:arrow
         length="1.6cm" />
      <cdml:atom
         show_hydrogens="0" />
    </cdml:standard>
    <cdml:molecule
       id="molecule39233"
       name="">
      <cdml:atom
         id="atom59686"
         name="C"
         valency="4">
        <cdml:font
           family="helvetica"
           size="24" />
        <cdml:point
           x="9.119cm"
           y="8.543cm" />
      </cdml:atom>
      <cdml:atom
         id="atom33534"
         name="C"
         valency="4">
        <cdml:font
           family="helvetica"
           size="24" />
        <cdml:point
           x="7.830cm"
           y="7.997cm" />
      </cdml:atom>
      <cdml:atom
         id="atom82093"
         name="C"
         valency="4">
        <cdml:font
           family="helvetica"
           size="24" />
        <cdml:point
           x="6.562cm"
           y="8.589cm" />
      </cdml:atom>
      <cdml:atom
         id="atom42062"
         name="C"
         valency="4">
        <cdml:font
           family="helvetica"
           size="24" />
        <cdml:point
           x="6.890cm"
           y="7.786cm" />
      </cdml:atom>
      <cdml:atom
         id="atom29018"
         name="C"
         valency="4">
        <cdml:font
           family="helvetica"
           size="24" />
        <cdml:point
           x="5.601cm"
           y="7.241cm" />
      </cdml:atom>
      <cdml:atom
         id="atom27655"
         name="C"
         valency="4">
        <cdml:font
           family="helvetica"
           size="24" />
        <cdml:point
           x="6.216cm"
           y="7.076cm" />
      </cdml:atom>
      <cdml:atom
         hydrogens="on"
         id="atom59345"
         name="O"
         pos="center-first"
         valency="2">
        <cdml:font
           family="helvetica"
           size="14" />
        <cdml:point
           x="6.216cm"
           y="6.179cm" />
      </cdml:atom>
      <cdml:atom
         hydrogens="on"
         id="atom12288"
         name="O"
         pos="center-first"
         valency="2">
        <cdml:font
           family="helvetica"
           size="14" />
        <cdml:point
           x="9.119cm"
           y="9.572cm" />
      </cdml:atom>
      <cdml:atom
         id="atom67926"
         name="F"
         pos="center-first"
         valency="1">
        <cdml:font
           family="helvetica"
           size="14" />
        <cdml:point
           x="8.424cm"
           y="8.839cm" />
      </cdml:atom>
      <cdml:atom
         hydrogens="on"
         id="atom90530"
         name="O"
         pos="center-last"
         valency="2">
        <cdml:font
           family="helvetica"
           size="14" />
        <cdml:point
           x="4.733cm"
           y="7.729cm" />
      </cdml:atom>
      <cdml:atom
         hydrogens="on"
         id="atom76744"
         name="O"
         pos="center-last"
         valency="2">
        <cdml:font
           family="helvetica"
           size="14" />
        <cdml:point
           x="5.587cm"
           y="8.127cm" />
      </cdml:atom>
      <cdml:atom
         id="atom69142"
         name="O"
         pos="center-first"
         valency="2">
        <cdml:font
           family="helvetica"
           size="14" />
        <cdml:point
           x="8.158cm"
           y="7.221cm" />
      </cdml:atom>
      <cdml:bond
         double_ratio="0.75"
         end="atom67926"
         id="bond27854"
         line_width="1.0"
         start="atom33534"
         type="n1" />
      <cdml:bond
         double_ratio="0.75"
         end="atom42062"
         id="bond95309"
         line_width="1.0"
         start="atom69142"
         type="n1" />
      <cdml:bond
         double_ratio="0.75"
         end="atom76744"
         id="bond36396"
         line_width="1.0"
         start="atom82093"
         type="n1" />
      <cdml:bond
         double_ratio="0.75"
         end="atom82093"
         id="bond23753"
         line_width="1.0"
         start="atom29018"
         type="w1"
         wedge_width="5.0" />
      <cdml:bond
         double_ratio="0.75"
         end="atom69142"
         id="bond60968"
         line_width="1.0"
         start="atom59686"
         type="n1" />
      <cdml:bond
         double_ratio="0.75"
         end="atom33534"
         id="bond50728"
         line_width="1.0"
         start="atom59686"
         type="w1"
         wedge_width="5.0" />
      <cdml:bond
         double_ratio="0.75"
         end="atom27655"
         id="bond97731"
         line_width="1.0"
         start="atom42062"
         type="n1" />
      <cdml:bond
         double_ratio="0.75"
         end="atom82093"
         id="bond31873"
         line_width="1.0"
         start="atom33534"
         type="b1"
         wedge_width="5.0" />
      <cdml:bond
         double_ratio="0.75"
         end="atom90530"
         id="bond78565"
         line_width="1.0"
         start="atom29018"
         type="n1" />
      <cdml:bond
         double_ratio="0.75"
         end="atom59345"
         id="bond27694"
         line_width="1.0"
         start="atom27655"
         type="n1" />
      <cdml:bond
         double_ratio="0.75"
         end="atom29018"
         id="bond17406"
         line_width="1.0"
         start="atom42062"
         type="n1" />
      <cdml:bond
         double_ratio="0.75"
         end="atom12288"
         id="bond76778"
         line_width="1.0"
         start="atom59686"
         type="n1" />
    </cdml:molecule>
  </cdml:cdml>
  <path
     style="font-size:40px;font-style:normal;font-weight:normal;fill:#000000;fill-opacity:1;stroke:none;stroke-width:1px;stroke-linecap:butt;stroke-linejoin:miter;stroke-opacity:1;font-family:Bitstream Vera Sans"
     d="M 154.73724,120.55651 L 153.72579,120.55651 L 153.72579,114.74717 C 153.48229,114.95652 153.16294,115.16586 152.76773,115.3752 C 152.37251,115.58455 152.01757,115.74156 151.7029,115.84623 L 151.7029,114.96495 C 152.26856,114.72522 152.76304,114.43484 153.18636,114.09381 C 153.60966,113.75278 153.90935,113.42188 154.08541,113.1011 L 154.73724,113.1011 L 154.73724,120.55651 z M 158.88978,116.52998 C 158.47021,116.39155 158.15929,116.19402 157.957,115.93739 C 157.75471,115.68078 157.65357,115.37352 157.65357,115.0156 C 157.65357,114.47536 157.86897,114.02121 158.29977,113.65317 C 158.73057,113.28513 159.30372,113.10111 160.01923,113.1011 C 160.73848,113.10111 161.31725,113.28935 161.75554,113.66582 C 162.19383,114.04232 162.41298,114.50068 162.41299,115.04093 C 162.41298,115.38534 162.31277,115.685 162.11236,115.93993 C 161.91193,116.19487 161.60757,116.39155 161.19925,116.52998 C 161.70497,116.67855 162.08988,116.91829 162.35398,117.24918 C 162.61807,117.58009 162.75012,117.97514 162.75013,118.43435 C 162.75012,119.06914 162.50101,119.60263 162.00279,120.03484 C 161.50455,120.46703 160.84898,120.68313 160.03609,120.68313 C 159.22318,120.68313 158.56762,120.46619 158.06938,120.03231 C 157.57116,119.59842 157.32204,119.05732 157.32204,118.40903 C 157.32204,117.92618 157.45784,117.52185 157.72943,117.196 C 158.00102,116.87017 158.38781,116.64816 158.88978,116.52998 L 158.88978,116.52998 z M 158.68749,114.98521 C 158.68749,115.33638 158.81298,115.62339 159.06397,115.84623 C 159.31496,116.06909 159.64087,116.18052 160.04171,116.18051 C 160.4313,116.18052 160.75065,116.06993 160.99977,115.84876 C 161.24888,115.6276 161.37344,115.35664 161.37344,115.03586 C 161.37344,114.70159 161.24514,114.42049 160.98853,114.19257 C 160.73192,113.96465 160.41257,113.8507 160.03046,113.85069 C 159.64462,113.8507 159.32432,113.96213 159.06959,114.18497 C 158.81486,114.40783 158.68749,114.67458 158.68749,114.98521 L 158.68749,114.98521 z M 158.36159,118.4141 C 158.36158,118.67409 158.42995,118.92564 158.56668,119.16875 C 158.70341,119.41186 158.90663,119.6001 159.17635,119.73348 C 159.44607,119.86686 159.7364,119.93354 160.04732,119.93354 C 160.53057,119.93354 160.92952,119.79341 161.2442,119.51316 C 161.55887,119.23291 161.71621,118.87668 161.71621,118.44448 C 161.71621,118.00553 161.55419,117.64256 161.23015,117.35555 C 160.90611,117.06854 160.5006,116.92504 160.01361,116.92503 C 159.53785,116.92504 159.14357,117.06686 158.83078,117.35048 C 158.51798,117.63411 158.36158,117.98865 158.36159,118.4141 L 158.36159,118.4141 z"
     id="text2510" />
</svg>
